<svg xmlns="http://www.w3.org/2000/svg" xmlns:xlink="http://www.w3.org/1999/xlink" width="640" height="385.65"><rect width="640" height="385.65" rx="5" ry="5" class="a"/><svg y="0%" x="0%"><circle cx="20" cy="20" r="6" fill="#ff5f58"/><circle cx="40" cy="20" r="6" fill="#ffbd2e"/><circle cx="60" cy="20" r="6" fill="#18c132"/></svg><svg height="325.65" viewBox="0 0 60 32.565" width="600" x="15" xmlns="http://www.w3.org/2000/svg" xmlns:xlink="http://www.w3.org/1999/xlink" y="50"><style>@keyframes k{0%{transform:translateX(0)}.1%{transform:translateX(-60px)}9.1%{transform:translateX(-120px)}9.4%{transform:translateX(-180px)}10.2%{transform:translateX(-240px)}10.8%{transform:translateX(-300px)}12.4%{transform:translateX(-360px)}12.9%{transform:translateX(-420px)}13.7%{transform:translateX(-480px)}14.2%{transform:translateX(-540px)}14.7%{transform:translateX(-600px)}15.5%{transform:translateX(-660px)}16%{transform:translateX(-720px)}17.1%{transform:translateX(-780px)}17.5%{transform:translateX(-840px)}19.5%{transform:translateX(-900px)}19.6%{transform:translateX(-1020px)}29%{transform:translateX(-1080px)}29.6%{transform:translateX(-1140px)}30%{transform:translateX(-1200px)}30.5%{transform:translateX(-1260px)}31.5%{transform:translateX(-1320px)}32.8%{transform:translateX(-1380px)}33.2%{transform:translateX(-1440px)}34.5%{transform:translateX(-1500px)}39.5%{transform:translateX(-1560px)}42.1%{transform:translateX(-1740px)}51.5%{transform:translateX(-1920px)}58.8%{transform:translateX(-2160px)}66.4%{transform:translateX(-2460px)}66.5%{transform:translateX(-2520px)}76%{transform:translateX(-2580px)}76.5%{transform:translateX(-2640px)}77.2%{transform:translateX(-2700px)}77.7%{transform:translateX(-2760px)}78.9%{transform:translateX(-2820px)}79.2%{transform:translateX(-2880px)}79.9%{transform:translateX(-2940px)}80.6%{transform:translateX(-3000px)}82.8%{transform:translateX(-3060px)}83.4%{transform:translateX(-3120px)}83.9%{transform:translateX(-3180px)}84.9%{transform:translateX(-3240px)}85.2%{transform:translateX(-3300px)}90.4%{transform:translateX(-3360px)}90.5%{transform:translateX(-3480px)}to{transform:translateX(-3540px)}}.a{fill:#282d35}.f{fill:#b9c0cb}.g{fill:#66c2cd}</style><g font-size="1.67" font-family="Monaco,Consolas,Menlo,'Bitstream Vera Sans Mono','Powerline Symbols',monospace"><defs><symbol id="1"><text y="1.67" class="f">bash-3.2$</text></symbol><symbol id="2"><text y="1.67" class="f">bash-3.2$</text><text x="10.02" y="1.67" class="f">g</text></symbol><symbol id="3"><text y="1.67" class="f">bash-3.2$</text><text x="10.02" y="1.67" class="f">gi</text></symbol><symbol id="4"><text y="1.67" class="f">bash-3.2$</text><text x="10.02" y="1.67" class="f">git</text></symbol><symbol id="5"><text y="1.67" class="f">bash-3.2$</text><text x="10.02" y="1.67" class="f">git</text><text x="14.028" y="1.67" class="f">s</text></symbol><symbol id="6"><text y="1.67" class="f">bash-3.2$</text><text x="10.02" y="1.67" class="f">git</text><text x="14.028" y="1.67" class="f">st</text></symbol><symbol id="7"><text y="1.67" class="f">bash-3.2$</text><text x="10.02" y="1.67" class="f">git</text><text x="14.028" y="1.67" class="f">sta</text></symbol><symbol id="8"><text y="1.67" class="f">bash-3.2$</text><text x="10.02" y="1.67" class="f">git</text><text x="14.028" y="1.67" class="f">stat</text></symbol><symbol id="9"><text y="1.67" class="f">bash-3.2$</text><text x="10.02" y="1.67" class="f">git</text><text x="14.028" y="1.67" class="f">statu</text></symbol><symbol id="10"><text y="1.67" class="f">bash-3.2$</text><text x="10.02" y="1.67" class="f">git</text><text x="14.028" y="1.67" class="f">status</text></symbol><symbol id="11"><text y="1.67" class="f">bash-3.2$</text><text x="10.02" y="1.67" class="f">git</text><text x="14.028" y="1.67" class="f">status</text><text x="21.042" y="1.67" class="f">-</text></symbol><symbol id="12"><text y="1.67" class="f">bash-3.2$</text><text x="10.02" y="1.67" class="f">git</text><text x="14.028" y="1.67" class="f">status</text><text x="21.042" y="1.67" class="f">-s</text></symbol><symbol id="13"><text y="1.67" class="g">??</text><text x="3.006" y="1.67" class="f">Session.vim</text></symbol><symbol id="14"><text y="1.67" class="g">??</text><text x="3.006" y="1.67" class="f">TODO</text></symbol><symbol id="15"><text y="1.67" class="f">bash-3.2$</text><text x="10.02" y="1.67" class="f">git</text><text x="14.028" y="1.67" class="f">iadd</text></symbol><symbol id="16"><text y="1.67" class="f">?</text><text x="2.004" y="1.67" class="f">Select</text><text x="9.018" y="1.67" class="f">files</text><text x="15.03" y="1.67" class="f">to</text><text x="18.036" y="1.67" class="f">add:</text><text x="23.046" y="1.67" class="f">(Press</text><text x="30.06" y="1.67" class="f">&lt;space&gt;</text><text x="38.076" y="1.67" class="f">to</text><text x="41.082" y="1.67" class="f">select,</text><text x="49.098" y="1.67" class="f">&lt;a&gt;</text><text x="53.106" y="1.67" class="f">to</text><text x="56.112" y="1.67" class="f">togg</text></symbol><symbol id="17"><text y="1.67" class="f">le</text><text x="3.006" y="1.67" class="f">all,</text><text x="8.016" y="1.67" class="f">&lt;i&gt;</text><text x="12.024" y="1.67" class="f">to</text><text x="15.03" y="1.67" class="f">invert</text><text x="22.044" y="1.67" class="f">selection)</text></symbol><symbol id="18"><text y="1.67" class="f">❯◯</text><text x="3.006" y="1.67" class="f">Session.vim</text></symbol><symbol id="19"><text x="1.002" y="1.67" class="f">◯</text><text x="3.006" y="1.67" class="f">TODO</text></symbol><symbol id="20"><text y="1.67" class="f">?</text><text x="2.004" y="1.67" class="f">Select</text><text x="9.018" y="1.67" class="f">files</text><text x="15.03" y="1.67" class="f">to</text><text x="18.036" y="1.67" class="f">add:</text></symbol><symbol id="21"><text x="1.002" y="1.67" class="f">◯</text><text x="3.006" y="1.67" class="f">Session.vim</text></symbol><symbol id="22"><text y="1.67" class="f">❯◯</text><text x="3.006" y="1.67" class="f">TODO</text></symbol><symbol id="23"><text y="1.67" class="f">❯◉</text><text x="3.006" y="1.67" class="f">TODO</text></symbol><symbol id="24"><text y="1.67" class="f">?</text><text x="2.004" y="1.67" class="f">Select</text><text x="9.018" y="1.67" class="f">files</text><text x="15.03" y="1.67" class="f">to</text><text x="18.036" y="1.67" class="f">add:</text><text x="23.046" y="1.67" class="f">TODO</text></symbol><symbol id="25"><text y="1.67" fill="#a8cc8c">A</text><text x="3.006" y="1.67" class="f">TODO</text></symbol><symbol id="a"><path fill="transparent" d="M0 0h60v16H0z"/></symbol><symbol id="b"><path fill="#6f7683" d="M0 0h1.102v2.171H0z"/></symbol></defs><path class="a" d="M0 0h60v32.565H0z"/><g style="animation-duration:15.807013000000001s;animation-iteration-count:infinite;animation-name:k;animation-timing-function:steps(1,end)"><svg width="3600"><svg><use xlink:href="#a"/><use xlink:href="#b" x="-.004"/></svg><svg x="60"><use xlink:href="#a"/><use xlink:href="#b" x="9.996"/><use xlink:href="#1"/></svg><svg x="120"><use xlink:href="#a"/><use xlink:href="#b" x="10.996"/><use xlink:href="#2"/></svg><svg x="180"><use xlink:href="#a"/><use xlink:href="#b" x="11.996"/><use xlink:href="#3"/></svg><svg x="240"><use xlink:href="#a"/><use xlink:href="#b" x="12.996"/><use xlink:href="#4"/></svg><svg x="300"><use xlink:href="#a"/><use xlink:href="#b" x="13.996"/><use xlink:href="#4"/></svg><svg x="360"><use xlink:href="#a"/><use xlink:href="#b" x="14.996"/><use xlink:href="#5"/></svg><svg x="420"><use xlink:href="#a"/><use xlink:href="#b" x="15.996"/><use xlink:href="#6"/></svg><svg x="480"><use xlink:href="#a"/><use xlink:href="#b" x="16.996"/><use xlink:href="#7"/></svg><svg x="540"><use xlink:href="#a"/><use xlink:href="#b" x="17.996"/><use xlink:href="#8"/></svg><svg x="600"><use xlink:href="#a"/><use xlink:href="#b" x="18.996"/><use xlink:href="#9"/></svg><svg x="660"><use xlink:href="#a"/><use xlink:href="#b" x="19.996"/><use xlink:href="#10"/></svg><svg x="720"><use xlink:href="#a"/><use xlink:href="#b" x="20.996"/><use xlink:href="#10"/></svg><svg x="780"><use xlink:href="#a"/><use xlink:href="#b" x="21.996"/><use xlink:href="#11"/></svg><svg x="840"><use xlink:href="#a"/><use xlink:href="#b" x="22.996"/><use xlink:href="#12"/></svg><svg x="900"><use xlink:href="#a"/><use xlink:href="#b" x="-.004" y="2.146"/><use xlink:href="#12"/></svg><svg x="960"><use xlink:href="#a"/><use xlink:href="#b" x="-.004" y="6.488"/><use xlink:href="#12"/><use xlink:href="#13" y="2.171"/><use xlink:href="#14" y="4.342"/></svg><svg x="1020"><use xlink:href="#a"/><use xlink:href="#b" x="9.996" y="6.488"/><use xlink:href="#12"/><use xlink:href="#13" y="2.171"/><use xlink:href="#14" y="4.342"/><use xlink:href="#1" y="6.513"/></svg><svg x="1080"><use xlink:href="#a"/><use xlink:href="#b" x="10.996" y="6.488"/><use xlink:href="#12"/><use xlink:href="#13" y="2.171"/><use xlink:href="#14" y="4.342"/><use xlink:href="#2" y="6.513"/></svg><svg x="1140"><use xlink:href="#a"/><use xlink:href="#b" x="11.996" y="6.488"/><use xlink:href="#12"/><use xlink:href="#13" y="2.171"/><use xlink:href="#14" y="4.342"/><use xlink:href="#3" y="6.513"/></svg><svg x="1200"><use xlink:href="#a"/><use xlink:href="#b" x="12.996" y="6.488"/><use xlink:href="#12"/><use xlink:href="#13" y="2.171"/><use xlink:href="#14" y="4.342"/><use xlink:href="#4" y="6.513"/></svg><svg x="1260"><use xlink:href="#a"/><use xlink:href="#b" x="13.996" y="6.488"/><use xlink:href="#12"/><use xlink:href="#13" y="2.171"/><use xlink:href="#14" y="4.342"/><use xlink:href="#4" y="6.513"/></svg><svg x="1320"><use xlink:href="#a"/><use xlink:href="#b" x="14.996" y="6.488"/><use xlink:href="#12"/><use xlink:href="#13" y="2.171"/><use xlink:href="#14" y="4.342"/><text y="8.183" class="f">bash-3.2$</text><text x="10.02" y="8.183" class="f">git</text><text x="14.028" y="8.183" class="f">i</text></svg><svg x="1380"><use xlink:href="#a"/><use xlink:href="#b" x="15.996" y="6.488"/><use xlink:href="#12"/><use xlink:href="#13" y="2.171"/><use xlink:href="#14" y="4.342"/><text y="8.183" class="f">bash-3.2$</text><text x="10.02" y="8.183" class="f">git</text><text x="14.028" y="8.183" class="f">ia</text></svg><svg x="1440"><use xlink:href="#a"/><use xlink:href="#b" x="16.996" y="6.488"/><use xlink:href="#12"/><use xlink:href="#13" y="2.171"/><use xlink:href="#14" y="4.342"/><text y="8.183" class="f">bash-3.2$</text><text x="10.02" y="8.183" class="f">git</text><text x="14.028" y="8.183" class="f">iad</text></svg><svg x="1500"><use xlink:href="#a"/><use xlink:href="#b" x="17.996" y="6.488"/><use xlink:href="#12"/><use xlink:href="#13" y="2.171"/><use xlink:href="#14" y="4.342"/><use xlink:href="#15" y="6.513"/></svg><svg x="1560"><use xlink:href="#a"/><use xlink:href="#b" x="-.004" y="8.659"/><use xlink:href="#12"/><use xlink:href="#13" y="2.171"/><use xlink:href="#14" y="4.342"/><use xlink:href="#15" y="6.513"/></svg><svg x="1620"><use xlink:href="#a"/><use xlink:href="#b" x="6.996" y="15.172"/><use xlink:href="#12"/><use xlink:href="#13" y="2.171"/><use xlink:href="#14" y="4.342"/><use xlink:href="#15" y="6.513"/><use xlink:href="#16" y="8.684"/><use xlink:href="#17" y="10.855"/><use xlink:href="#18" y="13.026"/><use xlink:href="#19" y="15.197"/></svg><svg x="1680"><use xlink:href="#a"/><use xlink:href="#b" x="-.004" y="15.172"/><use xlink:href="#12"/><use xlink:href="#13" y="2.171"/><use xlink:href="#14" y="4.342"/><use xlink:href="#15" y="6.513"/><use xlink:href="#16" y="8.684"/><use xlink:href="#17" y="10.855"/><use xlink:href="#18" y="13.026"/><use xlink:href="#19" y="15.197"/></svg><svg x="1740"><use xlink:href="#a"/><use xlink:href="#b" x="6.996" y="15.172"/><use xlink:href="#12"/><use xlink:href="#13" y="2.171"/><use xlink:href="#14" y="4.342"/><use xlink:href="#15" y="6.513"/><use xlink:href="#16" y="8.684"/><use xlink:href="#17" y="10.855"/><use xlink:href="#18" y="13.026"/><use xlink:href="#19" y="15.197"/></svg><svg x="1800"><use xlink:href="#a"/><use xlink:href="#b" x="-.004" y="8.659"/><use xlink:href="#12"/><use xlink:href="#13" y="2.171"/><use xlink:href="#14" y="4.342"/><use xlink:href="#15" y="6.513"/></svg><svg x="1860"><use xlink:href="#a"/><use xlink:href="#b" x="6.996" y="13.001"/><use xlink:href="#12"/><use xlink:href="#13" y="2.171"/><use xlink:href="#14" y="4.342"/><use xlink:href="#15" y="6.513"/><use xlink:href="#20" y="8.684"/><use xlink:href="#21" y="10.855"/><use xlink:href="#22" y="13.026"/></svg><svg x="1920"><use xlink:href="#a"/><use xlink:href="#b" x="6.996" y="13.001"/><use xlink:href="#12"/><use xlink:href="#13" y="2.171"/><use xlink:href="#14" y="4.342"/><use xlink:href="#15" y="6.513"/><use xlink:href="#20" y="8.684"/><use xlink:href="#21" y="10.855"/><use xlink:href="#22" y="13.026"/></svg><svg x="1980"><use xlink:href="#a"/><use xlink:href="#b" x="-.004" y="8.659"/><use xlink:href="#12"/><use xlink:href="#13" y="2.171"/><use xlink:href="#14" y="4.342"/><use xlink:href="#15" y="6.513"/></svg><svg x="2040"><use xlink:href="#a"/><use xlink:href="#b" x="6.996" y="13.001"/><use xlink:href="#12"/><use xlink:href="#13" y="2.171"/><use xlink:href="#14" y="4.342"/><use xlink:href="#15" y="6.513"/><use xlink:href="#20" y="8.684"/><use xlink:href="#21" y="10.855"/><use xlink:href="#23" y="13.026"/></svg><svg x="2100"><use xlink:href="#a"/><use xlink:href="#b" x="-.004" y="13.001"/><use xlink:href="#12"/><use xlink:href="#13" y="2.171"/><use xlink:href="#14" y="4.342"/><use xlink:href="#15" y="6.513"/><use xlink:href="#20" y="8.684"/><use xlink:href="#21" y="10.855"/><use xlink:href="#23" y="13.026"/></svg><svg x="2160"><use xlink:href="#a"/><use xlink:href="#b" x="6.996" y="13.001"/><use xlink:href="#12"/><use xlink:href="#13" y="2.171"/><use xlink:href="#14" y="4.342"/><use xlink:href="#15" y="6.513"/><use xlink:href="#20" y="8.684"/><use xlink:href="#21" y="10.855"/><use xlink:href="#23" y="13.026"/></svg><svg x="2220"><use xlink:href="#a"/><use xlink:href="#b" x="-.004" y="8.659"/><use xlink:href="#12"/><use xlink:href="#13" y="2.171"/><use xlink:href="#14" y="4.342"/><use xlink:href="#15" y="6.513"/></svg><svg x="2280"><use xlink:href="#a"/><use xlink:href="#b" x="26.996" y="8.659"/><use xlink:href="#12"/><use xlink:href="#13" y="2.171"/><use xlink:href="#14" y="4.342"/><use xlink:href="#15" y="6.513"/><use xlink:href="#24" y="8.684"/></svg><svg x="2340"><use xlink:href="#a"/><use xlink:href="#b" x="-.004" y="8.659"/><use xlink:href="#12"/><use xlink:href="#13" y="2.171"/><use xlink:href="#14" y="4.342"/><use xlink:href="#15" y="6.513"/><use xlink:href="#24" y="8.684"/></svg><svg x="2400"><use xlink:href="#a"/><use xlink:href="#b" x="26.996" y="8.659"/><use xlink:href="#12"/><use xlink:href="#13" y="2.171"/><use xlink:href="#14" y="4.342"/><use xlink:href="#15" y="6.513"/><use xlink:href="#24" y="8.684"/></svg><svg x="2460"><use xlink:href="#a"/><use xlink:href="#b" x="-.004" y="10.83"/><use xlink:href="#12"/><use xlink:href="#13" y="2.171"/><use xlink:href="#14" y="4.342"/><use xlink:href="#15" y="6.513"/><use xlink:href="#24" y="8.684"/></svg><svg x="2520"><use xlink:href="#a"/><use xlink:href="#b" x="9.996" y="10.83"/><use xlink:href="#12"/><use xlink:href="#13" y="2.171"/><use xlink:href="#14" y="4.342"/><use xlink:href="#15" y="6.513"/><use xlink:href="#24" y="8.684"/><use xlink:href="#1" y="10.855"/></svg><svg x="2580"><use xlink:href="#a"/><use xlink:href="#b" x="10.996" y="10.83"/><use xlink:href="#12"/><use xlink:href="#13" y="2.171"/><use xlink:href="#14" y="4.342"/><use xlink:href="#15" y="6.513"/><use xlink:href="#24" y="8.684"/><use xlink:href="#2" y="10.855"/></svg><svg x="2640"><use xlink:href="#a"/><use xlink:href="#b" x="11.996" y="10.83"/><use xlink:href="#12"/><use xlink:href="#13" y="2.171"/><use xlink:href="#14" y="4.342"/><use xlink:href="#15" y="6.513"/><use xlink:href="#24" y="8.684"/><use xlink:href="#3" y="10.855"/></svg><svg x="2700"><use xlink:href="#a"/><use xlink:href="#b" x="12.996" y="10.83"/><use xlink:href="#12"/><use xlink:href="#13" y="2.171"/><use xlink:href="#14" y="4.342"/><use xlink:href="#15" y="6.513"/><use xlink:href="#24" y="8.684"/><use xlink:href="#4" y="10.855"/></svg><svg x="2760"><use xlink:href="#a"/><use xlink:href="#b" x="13.996" y="10.83"/><use xlink:href="#12"/><use xlink:href="#13" y="2.171"/><use xlink:href="#14" y="4.342"/><use xlink:href="#15" y="6.513"/><use xlink:href="#24" y="8.684"/><use xlink:href="#4" y="10.855"/></svg><svg x="2820"><use xlink:href="#a"/><use xlink:href="#b" x="14.996" y="10.83"/><use xlink:href="#12"/><use xlink:href="#13" y="2.171"/><use xlink:href="#14" y="4.342"/><use xlink:href="#15" y="6.513"/><use xlink:href="#24" y="8.684"/><use xlink:href="#5" y="10.855"/></svg><svg x="2880"><use xlink:href="#a"/><use xlink:href="#b" x="15.996" y="10.83"/><use xlink:href="#12"/><use xlink:href="#13" y="2.171"/><use xlink:href="#14" y="4.342"/><use xlink:href="#15" y="6.513"/><use xlink:href="#24" y="8.684"/><use xlink:href="#6" y="10.855"/></svg><svg x="2940"><use xlink:href="#a"/><use xlink:href="#b" x="16.996" y="10.83"/><use xlink:href="#12"/><use xlink:href="#13" y="2.171"/><use xlink:href="#14" y="4.342"/><use xlink:href="#15" y="6.513"/><use xlink:href="#24" y="8.684"/><use xlink:href="#7" y="10.855"/></svg><svg x="3000"><use xlink:href="#a"/><use xlink:href="#b" x="17.996" y="10.83"/><use xlink:href="#12"/><use xlink:href="#13" y="2.171"/><use xlink:href="#14" y="4.342"/><use xlink:href="#15" y="6.513"/><use xlink:href="#24" y="8.684"/><use xlink:href="#8" y="10.855"/></svg><svg x="3060"><use xlink:href="#a"/><use xlink:href="#b" x="18.996" y="10.83"/><use xlink:href="#12"/><use xlink:href="#13" y="2.171"/><use xlink:href="#14" y="4.342"/><use xlink:href="#15" y="6.513"/><use xlink:href="#24" y="8.684"/><use xlink:href="#9" y="10.855"/></svg><svg x="3120"><use xlink:href="#a"/><use xlink:href="#b" x="19.996" y="10.83"/><use xlink:href="#12"/><use xlink:href="#13" y="2.171"/><use xlink:href="#14" y="4.342"/><use xlink:href="#15" y="6.513"/><use xlink:href="#24" y="8.684"/><use xlink:href="#10" y="10.855"/></svg><svg x="3180"><use xlink:href="#a"/><use xlink:href="#b" x="20.996" y="10.83"/><use xlink:href="#12"/><use xlink:href="#13" y="2.171"/><use xlink:href="#14" y="4.342"/><use xlink:href="#15" y="6.513"/><use xlink:href="#24" y="8.684"/><use xlink:href="#10" y="10.855"/></svg><svg x="3240"><use xlink:href="#a"/><use xlink:href="#b" x="21.996" y="10.83"/><use xlink:href="#12"/><use xlink:href="#13" y="2.171"/><use xlink:href="#14" y="4.342"/><use xlink:href="#15" y="6.513"/><use xlink:href="#24" y="8.684"/><use xlink:href="#11" y="10.855"/></svg><svg x="3300"><use xlink:href="#a"/><use xlink:href="#b" x="22.996" y="10.83"/><use xlink:href="#12"/><use xlink:href="#13" y="2.171"/><use xlink:href="#14" y="4.342"/><use xlink:href="#15" y="6.513"/><use xlink:href="#24" y="8.684"/><use xlink:href="#12" y="10.855"/></svg><svg x="3360"><use xlink:href="#a"/><use xlink:href="#b" x="-.004" y="13.001"/><use xlink:href="#12"/><use xlink:href="#13" y="2.171"/><use xlink:href="#14" y="4.342"/><use xlink:href="#15" y="6.513"/><use xlink:href="#24" y="8.684"/><use xlink:href="#12" y="10.855"/></svg><svg x="3420"><use xlink:href="#a"/><use xlink:href="#b" x="-.004" y="17.343"/><use xlink:href="#12"/><use xlink:href="#13" y="2.171"/><use xlink:href="#14" y="4.342"/><use xlink:href="#15" y="6.513"/><use xlink:href="#24" y="8.684"/><use xlink:href="#12" y="10.855"/><use xlink:href="#25" y="13.026"/><use xlink:href="#13" y="15.197"/></svg><svg x="3480"><use xlink:href="#a"/><use xlink:href="#b" x="9.996" y="17.343"/><use xlink:href="#12"/><use xlink:href="#13" y="2.171"/><use xlink:href="#14" y="4.342"/><use xlink:href="#15" y="6.513"/><use xlink:href="#24" y="8.684"/><use xlink:href="#12" y="10.855"/><use xlink:href="#25" y="13.026"/><use xlink:href="#13" y="15.197"/><use xlink:href="#1" y="17.368"/></svg><svg x="3540"><use xlink:href="#a"/><use xlink:href="#b" x="9.996" y="19.514"/><use xlink:href="#12"/><use xlink:href="#13" y="2.171"/><use xlink:href="#14" y="4.342"/><use xlink:href="#15" y="6.513"/><use xlink:href="#24" y="8.684"/><use xlink:href="#12" y="10.855"/><use xlink:href="#25" y="13.026"/><use xlink:href="#13" y="15.197"/><use xlink:href="#1" y="17.368"/><use xlink:href="#1" y="19.539"/></svg></svg></g></g></svg></svg>